<?xml version="1.0" encoding="UTF-8"?>
<svg id="Layer_2" data-name="Layer 2" xmlns="http://www.w3.org/2000/svg" viewBox="0 0 479.27 78.17">
  <defs>
    <style>
      .cls-1 {
        fill: #00d76b;
      }
    </style>
  </defs>
  <g id="Hero">
    <g>
      <g>
        <path class="cls-1" d="M228,72.78c-5.18-3.59-7.77-8.68-7.77-15.27,0-.65.07-1.63.22-2.94h19.35c-.22,2.75.43,4.93,1.96,6.52,1.52,1.6,3.84,2.39,6.96,2.39,2.83,0,5.05-.61,6.69-1.85,1.63-1.23,2.45-2.97,2.45-5.22s-1.03-4.2-3.1-5.65c-2.06-1.45-5.27-3.08-9.62-4.89-4.2-1.74-7.63-3.39-10.27-4.95-2.65-1.56-4.95-3.68-6.9-6.36-1.96-2.68-2.93-6.05-2.93-10.11-.07-5,1.16-9.35,3.7-13.04,2.54-3.7,6.05-6.52,10.54-8.48,4.47-1.95,9.61-2.93,15.41-2.93,5.22,0,9.85.82,13.91,2.45,4.06,1.63,7.21,3.99,9.46,7.07,2.25,3.08,3.37,6.72,3.37,10.92,0,1.09-.04,1.89-.11,2.39h-19.78c.07-.29.11-.72.11-1.3,0-2.03-.71-3.68-2.12-4.95-1.41-1.27-3.35-1.9-5.82-1.9-2.61,0-4.73.64-6.36,1.9-1.63,1.27-2.45,2.99-2.45,5.16s1.01,4.01,3.04,5.49c2.03,1.49,5.18,3.21,9.46,5.16,4.28,1.96,7.77,3.77,10.49,5.44s5.05,3.9,7.01,6.69c1.96,2.79,2.94,6.21,2.94,10.27,0,4.49-1.2,8.52-3.59,12.07-2.39,3.55-5.83,6.32-10.33,8.32-4.49,1.99-9.75,2.99-15.76,2.99-8.26,0-14.98-1.79-20.16-5.38h0Z"/>
        <path class="cls-1" d="M349.48,1.09l-2.5,14.68h-20.33l-10.87,61.64h-18.59l10.87-61.64h-20.22l2.61-14.68s59.03,0,59.03,0Z"/>
        <path class="cls-1" d="M405.9,6.47c4.13,3.59,6.2,8.24,6.2,13.97,0,1.67-.15,3.23-.43,4.67-.87,5.07-3.08,9.6-6.63,13.59-3.55,3.99-8.3,6.81-14.24,8.48l12.28,30.22h-20.98l-10.76-28.81h-4.46l-5.11,28.81h-18.59L356.65,1.09h31.2c7.9,0,13.91,1.79,18.04,5.38h0ZM392.85,23.59c0-2.32-.74-4.11-2.23-5.38-1.49-1.27-3.68-1.9-6.58-1.9h-11.52l-3.37,19.13h11.52c3.41,0,6.1-.83,8.1-2.5,1.99-1.67,3.28-4.02,3.86-7.07.15-1.16.22-1.92.22-2.28Z"/>
        <path class="cls-1" d="M457.42,63.92h-28.48l-6.96,13.48h-19.46L443.62,1.09h21.52l14.13,76.31h-19.68l-2.17-13.48h0ZM455.25,49.79l-4.46-28.26-14.57,28.26h19.03Z"/>
      </g>
      <path class="cls-1" d="M204.53,0h-60.33c-4,0-7.25,3.25-7.25,7.25v63.66c0,4,3.25,7.25,7.25,7.25h62.87c4,0,7.25-3.25,7.25-7.25V7.25c0-4-3.25-7.25-7.25-7.25h-2.54ZM197.28,68.37h-43.29c-4,0-7.25-3.25-7.25-7.25V17.04c0-4,3.25-7.25,7.25-7.25h43.29c4,0,7.25,3.25,7.25,7.25v44.08c0,4-3.25,7.25-7.25,7.25Z"/>
      <path class="cls-1" d="M117.62,0H7.25C3.25,0,0,3.25,0,7.25v63.66c0,4,3.25,7.25,7.25,7.25h2.54V17.04c0-4,3.25-7.25,7.25-7.25h90.79c4,0,7.25,3.25,7.25,7.25v61.12h2.54c4,0,7.25-3.25,7.25-7.25V7.25c0-4-3.24-7.25-7.25-7.25Z"/>
    </g>
  </g>
</svg>